<svg xmlns="http://www.w3.org/2000/svg" width="486.5" height="356.212"><path data-name="Path 1753" d="M62.7 354.112c-1-.5-1.1-.8-1.1-2.7 0-3.5.3-6.3.4-7.4.1-.8.2-1.1.6-1.1s.5.2.5.8a13.275 13.275 0 00.2 2.6c1.1 5.2 5.7 7.2 10.4 7.2 6.7 0 10-4.8 10-9.3 0-4.8-2-7.7-8.1-12.6l-3.2-2.6c-7.4-6.1-9.1-10.5-9.1-15.2 0-7.5 5.6-12.6 14.5-12.6a27.983 27.983 0 016.5.7 11 11 0 002.5.4c.6 0 .7.1.7.5 0 .3-.3 2.7-.3 7.4 0 1.1-.1 1.6-.5 1.6s-.5-.3-.6-.9a15.034 15.034 0 00-.9-3.5c-.4-.8-2.3-3.7-8.8-3.7-4.8 0-8.6 3-8.6 8.1 0 4 1.8 6.5 8.6 11.8l2 1.5c8.3 6.5 10.2 10.9 10.2 16.5a14.554 14.554 0 01-6 11.7 18.414 18.414 0 01-10.6 2.9 24.307 24.307 0 01-9.3-2.1z" fill="#f79725"/><path data-name="Path 1754" d="M123 309.112c13.9 0 24.4 8.5 24.4 22.4 0 13.3-9.9 24.3-24.8 24.3-16.9 0-24.1-12.7-24.1-23.4 0-9.7 7.5-23.3 24.5-23.3zm1.4 44.2c5.5 0 16.7-2.9 16.7-20.2 0-14.3-8.7-21.8-18.5-21.8-10.3 0-17.8 6.5-17.8 19.4.1 13.9 8.5 22.6 19.6 22.6z" fill="#f79725"/><path data-name="Path 1755" d="M166 337.812c0 8.8.1 12.3 1.3 13.4 1 1 3.4 1.4 8.2 1.4 3.2 0 6-.1 7.4-1.8a7 7 0 001.5-3.4c.1-.4.3-.8.6-.8s.4.3.4.9a37.893 37.893 0 01-.9 6c-.4 1.4-.6 1.6-3.9 1.6-4.4 0-7.9-.1-10.7-.2s-4.9-.1-6.7-.1c-.3 0-1.3 0-2.5.1-1.3.1-2.6.1-3.6.1-.6 0-1-.1-1-.5a.467.467 0 01.5-.5 6.28 6.28 0 001.9-.3c1.2-.3 1.3-1.4 1.6-3.2a107.56 107.56 0 00.4-12.9v-10.5c0-9.3 0-10.9-.1-12.8-.1-2-.5-3-2.5-3.3a14.082 14.082 0 00-2.1-.1.642.642 0 01-.5-.5c0-.3.3-.5 1-.5 2.8 0 6.7.1 7 .1s4.9-.1 6.8-.1c.6 0 1 .1 1 .5 0 .2-.3.4-.5.4-.4 0-1.3.1-2 .1-1.8.4-2.2 1.3-2.3 3.4-.1 1.9-.1 3.6-.1 12.8v10.7z" fill="#f79725"/><path data-name="Path 1756" d="M194.4 327.212c0-9.3 0-10.9-.1-12.8s-.5-3-2.5-3.3a14.082 14.082 0 00-2.1-.1.642.642 0 01-.5-.5c0-.3.3-.5 1-.5 2.8 0 6.5.1 7.1.1s4.4-.1 6.2-.1c.7 0 1.1.1 1.1.5a.648.648 0 01-.6.5 9.233 9.233 0 00-1.5.1c-1.6.3-2 1.3-2.1 3.3-.1 1.9-.1 3.6-.1 12.8v8.3c0 8.6 1.9 12.2 4.6 14.6 3 2.7 5.7 3.2 9.2 3.2a12.634 12.634 0 009.5-4.2c2.9-3.4 3.5-8.4 3.5-14.5v-7.5c0-9.3-.1-10.9-.1-12.8-.1-1.9-.4-3-2.5-3.3a14.082 14.082 0 00-2.1-.1.536.536 0 01-.5-.5c0-.3.3-.5 1-.5 2.7 0 6.3.1 6.7.1s3.4-.1 5.2-.1c.7 0 1 .1 1 .5a.536.536 0 01-.5.5 9.233 9.233 0 00-1.5.1c-1.7.3-2 1.3-2.2 3.3-.1 1.9-.1 3.6-.1 12.8v6.4c0 6.5-.8 13.7-5.8 17.9-4.5 3.9-9.3 4.3-12.9 4.3-2 0-8.5-.1-12.8-4.2-3-2.8-5.4-6.9-5.4-15.7v-8.6z" fill="#f79725"/><path data-name="Path 1757" d="M262.4 337.712c0 5.8 0 10.5.3 12.9.2 1.8.5 2.9 2.4 3.2.8.1 2.2.3 2.8.3a.467.467 0 01.5.5c0 .3-.3.5-1 .5-3.4 0-7.3-.2-7.6-.2s-4.6.2-6.4.2c-.7 0-1-.1-1-.5 0-.2.1-.4.5-.4a5.231 5.231 0 001.8-.3c1.3-.3 1.6-1.5 1.8-3.2.3-2.5.3-7.2.3-12.9v-25.1l-8.9.1c-3.9.1-5.3.5-6.2 1.9a12.054 12.054 0 00-1 1.9c-.1.5-.4.6-.6.6a.452.452 0 01-.4-.5c0-.6 1.3-6 1.3-6.5.1-.3.4-1.1.6-1.1a21.578 21.578 0 002.7.7c1.8.2 4.1.3 4.8.3h23.3a23.607 23.607 0 004.4-.3c.9-.1 1.5-.3 1.8-.3s.3.4.3.7c0 1.8-.2 6.1-.2 6.8 0 .5-.3.8-.6.8s-.4-.2-.5-1.1l-.1-.6c-.2-1.8-1.5-3.2-7.4-3.3l-7.7-.1v25z" fill="#f79725"/><path data-name="Path 1758" d="M297.3 337.712c0 5.8 0 10.5.3 12.9.2 1.8.4 2.9 2.2 3.2.9.1 2.2.3 2.8.3a.467.467 0 01.5.5c0 .3-.3.5-1 .5-3.4 0-7.4-.2-7.7-.2-.4 0-4.2.2-6.1.2-.6 0-1-.1-1-.5a.467.467 0 01.5-.5 6.28 6.28 0 001.9-.3c1.2-.3 1.4-1.4 1.6-3.2.3-2.5.4-7.2.4-12.9v-10.5c0-9.3 0-10.9-.1-12.8-.1-2-.6-2.9-2-3.2a17.63 17.63 0 00-1.9-.2.536.536 0 01-.5-.5c0-.3.3-.5 1-.5 2 0 5.9.1 6.2.1s4.3-.1 6.2-.1c.7 0 1 .1 1 .5a.642.642 0 01-.5.5 9.233 9.233 0 00-1.5.1c-1.7.3-2 1.2-2.2 3.3-.1 1.9-.1 3.6-.1 12.8v10.5z" fill="#f79725"/><path data-name="Path 1759" d="M335.5 309.112c13.9 0 24.4 8.5 24.4 22.4 0 13.3-9.9 24.3-24.8 24.3-16.9 0-24.1-12.7-24.1-23.4 0-9.7 7.5-23.3 24.5-23.3zm1.4 44.2c5.5 0 16.7-2.9 16.7-20.2 0-14.3-8.7-21.8-18.5-21.8-10.3 0-17.8 6.5-17.8 19.4.1 13.9 8.5 22.6 19.6 22.6z" fill="#f79725"/><path data-name="Path 1760" d="M375.5 346.912c.1 4.9.7 6.4 2.4 6.8a13.761 13.761 0 003.1.4.472.472 0 01.5.5c0 .4-.4.5-1.1.5-3.5 0-6-.2-6.5-.2-.6 0-3.2.2-6 .2-.6 0-1-.1-1-.5a.472.472 0 01.5-.5 9.057 9.057 0 002.5-.4c1.5-.4 1.8-2 1.8-7.4v-34.2c0-2.4.4-3 .8-3 .7 0 1.8 1.2 2.4 1.8 1 1 10 10.5 19.5 20.3 6.1 6.3 12.7 13.4 14.6 15.4l-.6-29.9c-.1-3.9-.4-5.2-2.3-5.5a21.264 21.264 0 00-3-.3c-.4 0-.5-.4-.5-.6 0-.3.5-.4 1.2-.4 2.8 0 5.8.1 6.5.1s2.7-.1 5.3-.1c.6 0 1.1.1 1.1.4a.754.754 0 01-.7.6 9.888 9.888 0 00-1.5.1c-2 .4-2.2 1.6-2.2 5.2l-.1 34.9c0 3.9-.1 4.3-.5 4.3-.6 0-1.3-.5-4.7-3.7-.6-.6-9.5-9.3-16.1-16.1-7.2-7.5-14.1-14.8-16-16.9z" fill="#f79725"/><path data-name="Path 1761" d="M426.1 354.212c-.8-.4-.9-.6-.9-2.2a57.329 57.329 0 01.4-6.3c0-.6.1-1 .5-1s.6.2.6.7a9.814 9.814 0 00.2 2.2c1 4.4 5.6 5.9 9.8 5.9 6.1 0 9.3-3.4 9.3-7.9 0-4.3-2.3-6.3-7.8-10.4l-2.8-2.1c-6.7-5-8.8-8.6-8.8-12.8 0-7 5.5-11.2 13.7-11.2a27.048 27.048 0 016.4.7 7.653 7.653 0 002.2.3c.5 0 .6.1.6.4a58.47 58.47 0 00-.3 6.3c0 .9-.1 1.3-.5 1.3s-.5-.3-.6-.8a13.97 13.97 0 00-.9-2.9c-.4-.7-2.5-2.9-8-2.9-4.5 0-8.2 2.2-8.2 6.5 0 3.8 1.9 6 8 10.1l1.8 1.2c7.5 5.1 10.1 9.3 10.1 14.4a11.583 11.583 0 01-5.8 10.2c-2.6 1.7-6.5 2.1-9.8 2.1-3.1-.2-6.7-.6-9.2-1.8z" fill="#f79725"/><path data-name="Path 1762" d="M41.6 293.612c-26.1 0-39.7-9.1-41.6-27.9h14.4a17.6 17.6 0 007.2 11.7c4.5 3.3 10.3 5 17.2 5a32 32 0 008.3-1 28.7 28.7 0 007.4-3 16.316 16.316 0 005.4-5 12.286 12.286 0 002.2-6.9c0-7.5-6-12.8-17.9-15.7-8.6-2-15.2-3.8-19.6-5.2s-7.5-2.6-9.4-3.4c-4.7-2.1-8.1-4.9-10.1-8.2-2.1-3.3-3.1-7.7-3.1-13a27.5 27.5 0 012.2-11.1 24.379 24.379 0 016.4-8.8 31.933 31.933 0 0110.6-6 45.464 45.464 0 0115-2.3 46.045 46.045 0 0114.6 2.2 39.359 39.359 0 0111.7 6.1 28.408 28.408 0 0110.7 18.6H58.7a17.134 17.134 0 00-7-10.7q-6.3-4.5-15.6-4.5a27.036 27.036 0 00-14.2 3.7c-4.4 2.7-6.7 6.7-6.7 11.4a12.116 12.116 0 004.7 9.6c2.8 2.3 7.1 4.2 13.2 5.6 4.2 1 8.2 2 11.6 2.9 3.2.8 6.2 1.7 8.8 2.4 2.5.8 4.8 1.5 6.7 2.2a45.311 45.311 0 015.5 2.3 18.662 18.662 0 017.8 6.9c1.9 3 2.9 7 2.9 12a27.566 27.566 0 01-2.7 12.4 28.351 28.351 0 01-7.4 9.4 33.893 33.893 0 01-11.1 6 37.728 37.728 0 01-13.6 2.3z" fill="#1ca2da"/><path data-name="Path 1763" d="M91.7 249.312a15.23 15.23 0 016.1-6.8 18.7 18.7 0 018.5-1.9 15.54 15.54 0 018 1.8 19.492 19.492 0 015.8 6.2c2.6-5.3 7.1-8 13.4-8a17.315 17.315 0 016.9 1.3 18.632 18.632 0 015.4 3.5 15.8 15.8 0 013.5 5.3 17.411 17.411 0 011.3 6.4v34.5h-12.9v-30.1a12.03 12.03 0 00-2.1-7.4 6.611 6.611 0 00-5.6-2.8 7.388 7.388 0 00-6 3 11.72 11.72 0 00-2.4 7.6v29.7h-13.1v-29.9c0-4-.6-6.7-1.8-8s-3.2-2-6.1-2c-5.4 0-8.1 3.2-8.1 9.7v30.2H79.3v-49.7h12.3v7.4z" fill="#1ca2da"/><path data-name="Path 1764" d="M177.9 240.712c7.1 0 12.3 1.7 15.9 5 3.5 3.3 5.3 8.2 5.3 14.6v31.4h-12.2c-.1-.6-.3-1.2-.4-1.9a14.6 14.6 0 01-.3-2.2 15.492 15.492 0 01-6.2 3.8 29.117 29.117 0 01-8.8 1.3c-5 0-9-1.2-12.1-3.7-3-2.5-4.5-5.9-4.5-10.3a17.534 17.534 0 011.7-8.2 12.732 12.732 0 014.7-4.8 24.1 24.1 0 017.3-2.6c2.8-.6 5.8-1.1 9.1-1.5a20.237 20.237 0 006.2-1.7 3.637 3.637 0 002.2-3.4 4.742 4.742 0 00-2.6-4.3 12.425 12.425 0 00-5.8-1.4 8.688 8.688 0 00-5.8 2 7.933 7.933 0 00-2.8 5.4H156q.6-8.25 5.7-12.9c3.4-3.1 8.7-4.6 16.2-4.6zm8 26.7c-1.3 1.1-3.6 2-6.9 2.6-4.5.9-7.6 1.9-9.2 3.1a5.939 5.939 0 00-2.4 5c0 3.7 2 5.6 5.9 5.6a16.136 16.136 0 004.9-.7 13.229 13.229 0 004.1-2.1 9.223 9.223 0 002.8-3.6 11.459 11.459 0 001-5 22.747 22.747 0 00-.1-2.4 9.329 9.329 0 00-.1-2.5z" fill="#1ca2da"/><path data-name="Path 1765" d="M233.1 254.212a21.863 21.863 0 00-3.6-.3c-8.1 0-12.1 4-12.1 12v25.9h-13.1v-49.7h12.3v6a14.869 14.869 0 013.4-3.9 17.424 17.424 0 013.6-2.2 12.407 12.407 0 013.8-.9c1.3-.1 2.6-.2 3.9-.2h1.7v13.3z" fill="#1ca2da"/><path data-name="Path 1766" d="M276.5 251.412h-27.3v20.5a13.827 13.827 0 001.7 7.3 6.523 6.523 0 005.7 2.6c2.6 0 4.5-.8 5.7-2.5s1.8-4.1 1.8-7.2v-13h12.2v14.3a26.675 26.675 0 01-1.1 7.5 17.869 17.869 0 01-3.6 6.3 17.356 17.356 0 01-6.3 4.4 22.79 22.79 0 01-9.1 1.6 23.819 23.819 0 01-9.3-1.6 17.04 17.04 0 01-9.9-10.7 23.7 23.7 0 01-1.1-7.6v-44.6H249v13.4h27.3v9.3z" fill="#1ca2da"/><path data-name="Path 1767" d="M307.4 224.612a33.138 33.138 0 0112.5 2.2 27.567 27.567 0 019.8 6.5 28.11 28.11 0 016.4 10.4 39.764 39.764 0 012.3 13.7 44.681 44.681 0 01-2.1 14 31.281 31.281 0 01-5.9 10.8 26.56 26.56 0 01-20.9 9.5h-28.1v-67.1h26zm-12.4 55.7h11.7c6.2 0 10.6-1.9 13.4-5.6 2.7-3.7 4.1-9.5 4.1-17.2 0-7.6-1.4-13-4.3-16.3s-7.7-4.9-14.3-4.9H295z" fill="#f79725"/><path data-name="Path 1768" d="M354.5 270.312a14.181 14.181 0 003.3 8.9 10.2 10.2 0 007.9 3.4 11.031 11.031 0 005.7-1.5 6.788 6.788 0 003.3-4h13.5a21.415 21.415 0 01-8.1 11.8 22.666 22.666 0 01-13.7 4.1c-16.6 0-24.9-9-24.9-27.1 0-7.7 2.1-13.9 6.2-18.4 4.1-4.6 10.1-6.9 17.8-6.9 15.6 0 23.3 9.9 23.3 29.7zm20.7-8.2c-.1-3.7-1.2-6.5-3.2-8.2a10.012 10.012 0 00-6.9-2.7 9.353 9.353 0 00-6.9 2.8q-2.85 2.85-3.3 8.1z" fill="#f79725"/><path data-name="Path 1769" d="M424.5 259.812a9.713 9.713 0 00-3.1-6 9.144 9.144 0 00-6.3-2.2 10.016 10.016 0 00-3.9.7 8.2 8.2 0 00-3.2 2.4 13.485 13.485 0 00-2.2 4.5 26.424 26.424 0 00-.8 6.8c0 5.5 1 9.5 2.9 12.1 2 2.6 4.2 3.9 6.8 3.9a10.335 10.335 0 006.5-2.1 8.754 8.754 0 003.2-6.2h13.2a22.866 22.866 0 01-2.5 7.9 19.717 19.717 0 01-5 6.1 21.782 21.782 0 01-7 3.9 25.519 25.519 0 01-8.4 1.4 25.236 25.236 0 01-9.3-1.7 19.091 19.091 0 01-7.2-5 21.712 21.712 0 01-4.7-8.3 37.189 37.189 0 01-1.6-11.7 35.73 35.73 0 011.7-11.5 21.742 21.742 0 014.7-8 18.539 18.539 0 017.3-4.6 29.291 29.291 0 019.6-1.5q9.9 0 15.9 5.1c4 3.4 6.2 8.1 6.6 14h-13.2z" fill="#f79725"/><path data-name="Path 1770" d="M469.8 260.312l16.3 31.4h-14.7l-10.9-22.4-6.4 6.7v15.7H441v-67.8h13v37.1l16.4-19h16.1z" fill="#f79725"/><g data-name="Group 2493"><g data-name="Group 2492"><path data-name="Path 1771" d="M260.4 214.912c43.3 0 82.2 4.4 108.7 11.3-18.8-11.5-60.7-19.6-109.4-19.6-49.6 0-92.2 8.3-110.5 20.3 26.5-7.3 66.5-12 111.2-12z" fill="#1ca2da"/><path data-name="Path 1772" d="M342 166.512s8.7 22.5-3.9 16.8-8.9-43.6-1-53.8c7.8-10.2 28-2.3 32.6 8.6s-3.1 28.9-17 15c-.1 0 13.8 27.2-10.7 13.4z" fill="#1ca2da"/><path data-name="Path 1773" d="M165.5 166.512s-8.7 22.5 3.9 16.8 8.9-43.6 1-53.8c-7.8-10.2-28-2.3-32.6 8.6s3.1 28.9 17 15c.1 0-13.8 27.2 10.7 13.4z" fill="#1ca2da"/><path data-name="Path 1774" d="M216.7 53.612c-3.1-.9-3.8-4.6-3-7.2.1-.2.1-.5.2-.7a87.619 87.619 0 00-31 26.2c5.6-5.7 12.2-10.2 20.3-11.2a6.883 6.883 0 012.5.2 79.994 79.994 0 0111.5-7.3z" fill="#1ca2da"/><path data-name="Path 1775" d="M277.3 39.412c1.8 2.4 1.6 6.2-.9 8 0 .2-.1.4-.1.6a79.9 79.9 0 0136.9 23.3 7.054 7.054 0 014.8-1.4c2.4.1 5.1 1.4 7.6 3.1a89.7 89.7 0 00-48.3-33.6z" fill="#1ca2da"/><path data-name="Path 1776" d="M332.8 134.312a79.72 79.72 0 01-158 1.5 77.71 77.71 0 01-.8-9.5 4.263 4.263 0 01-1.2-1.1 44.791 44.791 0 01-6.8-11 87.2 87.2 0 00.3 22.8 88.306 88.306 0 0099.9 74.8c42.4-6.1 73-44.5 75.1-85.7-2.1 2.3-4.6 7.1-8.5 8.2z" fill="#1ca2da"/><path data-name="Path 1777" d="M276.2 48.012s1.7-40.2-10.1-32.9c0 0-1.6 15.8.3 21 1.9 5.3-8.2 4.5-8.9.2-.6-4.3-12.3-39.3-20.2-28.7s9.9 10.9 11.2 19.8-2.4 10.5-6.9 6.2-21-18.6-22.6-10.6 16.7 12 16.7 12 .1 8.9-14.6 4.9-12.2 7.3 4 9.4-11.5 13.9-26.2-3.4 18.6-13.5 18.6-13.5-26.4-29.5 10.7-17.9c0 0 1.5-27.4 24.5-6.9l5.1 8.1s10.1-18.6 18-9.8c8.1 8.8 14.1 40.7.4 42.1z" fill="#1ca2da"/><path data-name="Path 1778" d="M197.5 60.812a41.012 41.012 0 1046.4 34.8 41.042 41.042 0 00-46.4-34.8zm8.8 75.8a33.135 33.135 0 1128.1-37.5 33.153 33.153 0 01-28.1 37.5z" fill="#1ca2da"/><path data-name="Path 1779" d="M240.4 100.912s20.2-8.5 27.3 7l1.5-11.1s-10.3-15.9-30.2-5z" fill="#1ca2da"/><path data-name="Path 1780" d="M199.7 92.812a6.033 6.033 0 00-1.9.6 7.968 7.968 0 012.7 5.2c.6 3.9-1.3 7.5-4.3 7.9a4.826 4.826 0 01-4.2-1.7 16.354 16.354 0 00.2 2.2c1 7.2 6 12.4 11.1 11.6 5.1-.7 8.4-7.1 7.4-14.3-.9-7-5.8-12.2-11-11.5zm6.9 16.9c.1 2.6-1.3 4.7-3.1 4.8s-3.4-2-3.5-4.5c-.1-2.6 1.3-4.7 3.1-4.8s3.4 1.9 3.5 4.5z" fill="#1ca2da"/><path data-name="Path 1781" d="M300.5 66.312a41.012 41.012 0 1046.4 34.8 41.042 41.042 0 00-46.4-34.8zm8.8 75.8a33.135 33.135 0 1128.1-37.5 33.153 33.153 0 01-28.1 37.5z" fill="#1ca2da"/><path data-name="Path 1782" d="M297.9 96.012a6.033 6.033 0 00-1.9.6 7.968 7.968 0 012.7 5.2c.6 3.9-1.3 7.5-4.3 7.9a4.826 4.826 0 01-4.2-1.7 16.351 16.351 0 00.2 2.2c1 7.2 6 12.4 11.1 11.6 5.1-.7 8.4-7.1 7.4-14.3-.9-7-5.8-12.2-11-11.5zm6.9 16.9c.1 2.6-1.3 4.7-3.1 4.8s-3.4-2-3.5-4.5c-.1-2.6 1.3-4.7 3.1-4.8s3.4 1.9 3.5 4.5z" fill="#1ca2da"/><g data-name="Group 2490" fill="#1ca2da"><path data-name="Path 1783" d="M188.5 143.612c0 .6-1 2-1.2 1.1-.2-.7-1.2-.5-1.2-1.1a1.2 1.2 0 011.2-1.1 1.135 1.135 0 011.2 1.1z"/><path data-name="Path 1784" d="M196.7 147.512c0 .8-1.2 1.5-2 1.5a1.5 1.5 0 010-3c.8.1 2 .7 2 1.5z"/><path data-name="Path 1785" d="M193.3 153.112c0 .8-1.1 1.4-2.4 1.4a2.6 2.6 0 01-2.4-1.4c-1-2 1.1-1.4 2.4-1.4s2.4.6 2.4 1.4z"/><path data-name="Path 1786" d="M198.9 158.612c0 .9-.4.9-.8.9s-1.3 0-1.3-.9-.3-1.4 1.4-1.7c.3-.1.7.8.7 1.7z"/><path data-name="Path 1787" d="M205.5 153.812c0 .4-.6.7-1.2.7s-1.2-.3-1.2-.7.6-1.5 1.2-1.2c.9.5 1.2.8 1.2 1.2z"/><path data-name="Path 1788" d="M205.2 146.712c0 .8-1.2.8-1.6.8-.3 0-.6-.6-.6-1.4s.3-1.4.6-1.4a3.349 3.349 0 011.6 2z"/><path data-name="Path 1789" d="M208.1 162.412c0 .7-.9 1.2-1.9 1.2-1.1 0-1.9-.6-1.9-1.2 0-.7.5-2.1 1.5-1.6.9.5 2.3 1 2.3 1.6z"/></g><g data-name="Group 2491" fill="#1ca2da"><path data-name="Path 1790" d="M317.4 148.712c0 .6 1 2 1.2 1.1.2-.7 1.2-.5 1.2-1.1a1.2 1.2 0 00-2.4 0z"/><path data-name="Path 1791" d="M309.2 152.712c0 .8 1.2 1.5 2 1.5a1.5 1.5 0 000-3c-.8 0-2 .7-2 1.5z"/><path data-name="Path 1792" d="M312.7 158.212c0 .7 1.1 1.4 2.4 1.4a2.6 2.6 0 002.4-1.4c1-2-1.1-1.4-2.4-1.4-1.4.1-2.4.7-2.4 1.4z"/><path data-name="Path 1793" d="M307 163.812c0 .9.4.9.8.9s1.3 0 1.3-.9.3-1.4-1.4-1.7c-.3-.1-.7.7-.7 1.7z"/><path data-name="Path 1794" d="M300.5 158.912c0 .4.6.7 1.2.7.7 0 1.2-.3 1.2-.7s-.6-1.5-1.2-1.2c-1 .6-1.2.8-1.2 1.2z"/><path data-name="Path 1795" d="M300.7 151.912c0 .8 1.2.8 1.6.8.3 0 .6-.6.6-1.4s-.3-1.4-.6-1.4a3.072 3.072 0 00-1.6 2z"/><path data-name="Path 1796" d="M297.8 167.612c0 .7.9 1.2 1.9 1.2 1.1 0 1.9-.6 1.9-1.2 0-.7-.5-2.1-1.5-1.6-.9.5-2.3.9-2.3 1.6z"/></g><path data-name="Path 1797" d="M252.4 153.412l-14.1-23.2 15.4-4.4 14.6 5.8z" fill="#f79725"/></g></g></svg>