<svg xmlns="http://www.w3.org/2000/svg" width="1258" height="446"><defs><linearGradient id="a" x1=".298" y1=".035" x2=".741" y2=".977" gradientUnits="objectBoundingBox"><stop offset="0" stop-color="#6634b4"/><stop offset="1" stop-color="#f92548"/></linearGradient><linearGradient id="b" x1=".5" x2=".5" y2="1" gradientUnits="objectBoundingBox"><stop offset="0" stop-color="#6b33b0"/><stop offset="1" stop-color="#db1540"/></linearGradient></defs><g data-name="NB-Final Logo"><g data-name="Group 120" transform="translate(-737 -232)"><circle data-name="Ellipse 68" cx="223" cy="223" r="223" transform="translate(737 232)" fill="url(#a)"/><path data-name="Path 44" d="M850.116 525.81V444.9l90.711 80.91s27.568 11.561 34.352-14.35c.2-.744.626-2.946.626-2.946v-80.262h-38.557v39.915l-87.131-79.4s-27.8-21.43-37.838 13.631c-.127.442-.493 1.855-.493 1.855V525.81z" fill="#fff"/><path data-name="Path 45" d="M949.88 422.369h110.342s9.02 2.136 9.02 9.144-3.665 9.777-9.02 9.539c-6.045-.27-77.448 0-77.448 0v29.551h77.448s9.5-.18 9.5 9.165-5.8 9.5-9.5 9.5h-77.448s1.084 12.7-.975 21.918a35.692 35.692 0 01-7.26 14.959c58.493 0 80.693-.4 88.346-.4h3.775s40.368.81 45.542-31.565-20.7-40.062-20.7-40.062 20.773-9.174 18.26-31.747c-2.136-19.187-13.254-28.785-31.775-33.888-2.911-.8-10.654-1.99-10.654-1.99l-133.856-.252z" fill="#fff"/></g><path data-name="Path 49" d="M-298.05-105.375a7.141 7.141 0 014.275-3.525 24.006 24.006 0 017.125-.9 25.86 25.86 0 016.9.75 10.935 10.935 0 013.9 1.8 6.121 6.121 0 011.875 3.15 23.587 23.587 0 01.9 7.65v83.25a43.3 43.3 0 01-.225 5.25 12.093 12.093 0 01-1.425 3.9q-2.1 4.05-11.7 4.05-5.85 0-8.1-.9a8.761 8.761 0 01-3.75-2.85q-33.75-45-44.4-58.8v49.35a43.3 43.3 0 01-.225 5.25 12.092 12.092 0 01-1.425 3.9q-2.1 4.05-11.7 4.05-9.3 0-11.4-4.05a11.971 11.971 0 01-1.425-4.05 45.635 45.635 0 01-.225-5.25v-83.7q0-5.7 1.425-8.325a7.141 7.141 0 014.275-3.525 24.936 24.936 0 017.35-.9 24.605 24.605 0 017.125.825 9.179 9.179 0 013.675 1.875 39.1 39.1 0 013.45 3.9q31.65 43.05 42.3 56.85v-50.7q0-5.7 1.425-8.325zm34.725 65.925q0-18 12.6-29.7t28.8-11.7q16.2 0 28.65 11.625t12.45 29.625a38.965 38.965 0 01-6.45 22.125 40.446 40.446 0 01-15.675 14.25 42.544 42.544 0 01-19.125 4.575 40.865 40.865 0 01-19.2-4.875 42.579 42.579 0 01-15.675-14.4 37.819 37.819 0 01-6.375-21.525zm31.35 10.725a15.938 15.938 0 009.75 3.675 16.358 16.358 0 009.9-3.75q4.95-3.75 4.95-11.1t-4.65-10.95a16.092 16.092 0 00-10.05-3.6 15.7 15.7 0 00-10.05 3.75q-4.65 3.75-4.65 11.025t4.8 10.95zm104.55-23.775l-9.75-.6v20.7q0 4.05 1.275 5.85t4.8 1.8a48.657 48.657 0 015.4.225 10.653 10.653 0 013.975 1.425q3.45 1.95 3.45 10.05 0 9.45-4.2 11.55a13.9 13.9 0 01-3.975 1.275 41.854 41.854 0 01-5.025.225q-15.6 0-23.7-7.05t-8.1-23.85v-22.2a39.49 39.49 0 01-6.15.45 6.894 6.894 0 01-5.475-2.55q-2.175-2.55-2.175-8.7a37.757 37.757 0 01.75-8.925 8.022 8.022 0 012.1-3.975 9.206 9.206 0 016-1.95l4.95.6V-93.6a41.574 41.574 0 01.225-5.1 9.452 9.452 0 011.425-3.6q1.95-3.75 11.55-3.75 10.2 0 12.15 5.55a28.041 28.041 0 01.75 7.65v14.7q6.6-.6 9.975-.6a42.711 42.711 0 015.1.225 12.017 12.017 0 013.975 1.425q3.9 1.95 3.9 11.55 0 9.45-4.05 11.55a13.9 13.9 0 01-3.975 1.275 43.574 43.574 0 01-5.175.225zm72.75-18.15q.9-8.4 11.85-8.4a31.062 31.062 0 018.7.9A6.292 6.292 0 01-30.15-75a12.868 12.868 0 011.35 3.975 43.577 43.577 0 01.225 5.175v52.5a43.575 43.575 0 01-.225 5.175A13.9 13.9 0 01-30.075-4.2q-2.1 3.9-10.275 3.9T-51.3-2.325a8.1 8.1 0 01-3.225-5.925Q-60.075-.3-73.05-.3t-24.075-11.85a39.024 39.024 0 01-11.1-27.525 38.628 38.628 0 0111.175-27.45Q-85.875-78.9-72.525-78.9a23.371 23.371 0 019.3 1.8 20.648 20.648 0 015.85 3.375 20.847 20.847 0 012.7 3.075zm-27.3 31.2a12.448 12.448 0 003.9 8.925 12.748 12.748 0 009.45 3.975A11.931 11.931 0 00-59.4-30.6a13 13 0 003.675-8.925A13.852 13.852 0 00-59.25-48.6a11.706 11.706 0 00-9.45-4.2 12.149 12.149 0 00-9.6 4.2 13.622 13.622 0 00-3.675 9.15zm181.65-19.5a35.609 35.609 0 018.85 23.55q-.3 15-10.275 25.125A32.736 32.736 0 0174.025-.15h-39.45q-10.5 0-12.3-5.7a25.08 25.08 0 01-.9-7.8V-96.9a43.3 43.3 0 01.225-5.25 12.092 12.092 0 011.425-3.9q2.1-4.05 11.7-4.05h37.8a30.862 30.862 0 0123.1 9.6 31.913 31.913 0 019.75 23.4 31.244 31.244 0 01-5.7 18.15zm-17.7 22.05a15.988 15.988 0 00-.825-5.7 5.294 5.294 0 00-2.775-3 23.369 23.369 0 00-8.4-1.2q-5.4 0-8.1-2.1t-2.7-8.625q0-6.525 2.775-8.625t9.225-2.1q6 0 7.2-3.15a22.807 22.807 0 00.45-5.4q0-3.75-2.475-5.25t-7.425-1.5h-21v56.85h24.6q9.45 0 9.45-10.2zm112.5-12.075q0 9.225-4.575 13.65a14.269 14.269 0 01-10.125 4.425h-35.55q0 4.2 4.95 7.05a19.691 19.691 0 009.9 2.85q8.7 0 13.65-1.8l1.65-.6a15.127 15.127 0 016-1.65q4.8 0 8.25 6.75a16.553 16.553 0 011.95 6.9q0 13.35-31.95 13.35A48.207 48.207 0 01138.9-1.875 33.5 33.5 0 01125.475-12a43.131 43.131 0 01-9.45-27.15q0-18.9 12.225-30.225T158.775-80.7q20.85 0 30.6 14.7a30.491 30.491 0 015.1 17.025zm-31.65 4.425q5.7 0 5.7-4.8a6.757 6.757 0 00-2.625-5.55q-2.625-2.1-7.5-2.1t-9.675 3.975q-4.8 3.975-4.8 8.475zm85.35-34.5a31.722 31.722 0 0124.975 11.475q9.975 11.475 9.975 27.975v26.4a43.569 43.569 0 01-.225 5.175 12.252 12.252 0 01-1.275 3.825q-2.1 4.05-11.7 4.05-10.65 0-12.3-5.55a24.431 24.431 0 01-.9-7.65v-26.4q0-6.15-3.525-9.6a12.927 12.927 0 00-9.45-3.45 13.133 13.133 0 00-9.6 3.6 12.636 12.636 0 00-3.675 9.45v26.55a43.574 43.574 0 01-.225 5.175 10.666 10.666 0 01-1.425 3.825q-1.95 4.05-11.55 4.05-9.45 0-11.55-4.05a13.9 13.9 0 01-1.275-3.975 43.574 43.574 0 01-.225-5.175v-53.1a41.852 41.852 0 01.225-5.025 10.665 10.665 0 011.425-3.825q2.1-3.75 11.55-3.75 9.15 0 11.25 3.45a11.926 11.926 0 011.5 6.15 15.269 15.269 0 012.7-3 26.308 26.308 0 014.05-3.15 19.649 19.649 0 0111.25-3.45zm123.15 30.075q0 9.225-4.575 13.65a14.269 14.269 0 01-10.125 4.425h-35.55q0 4.2 4.95 7.05a19.691 19.691 0 009.9 2.85q8.7 0 13.65-1.8l1.65-.6a15.127 15.127 0 016-1.65q4.8 0 8.25 6.75a16.552 16.552 0 011.95 6.9q0 13.35-31.95 13.35a48.207 48.207 0 01-19.725-3.825A33.5 33.5 0 01302.325-12a43.131 43.131 0 01-9.45-27.15q0-18.9 12.225-30.225T335.625-80.7q20.85 0 30.6 14.7a30.491 30.491 0 015.1 17.025zm-31.65 4.425q5.7 0 5.7-4.8a6.757 6.757 0 00-2.625-5.55q-2.625-2.1-7.5-2.1t-9.675 3.975q-4.8 3.975-4.8 8.475z" transform="translate(881 249)" fill="url(#b)"/><path data-name="Path 47" d="M-235.811-17.041V0h-2.661l-1.828-4.492a9.7 9.7 0 01-9.009 5q-6.812 0-10.168-5.176a21.536 21.536 0 01-3.357-11.987 19.733 19.733 0 013.748-12.195 12.359 12.359 0 0110.486-4.988 11.915 11.915 0 018.276 2.917 12.836 12.836 0 014.1 7.263l-5.225.928q-1.465-6.1-7.007-6.1a6.981 6.981 0 00-5.774 2.881q-2.234 2.881-2.234 8.862 0 12.622 7.91 12.622a6.715 6.715 0 005.09-2.124 7.824 7.824 0 002.014-5.615h-6.885v-4.834zM-222.524 0h-5.566v-33.325h5.566zm17.583.513a9.713 9.713 0 01-8.35-3.931 14.844 14.844 0 01-2.881-9.009 13.321 13.321 0 013.186-9.106 10.635 10.635 0 018.411-3.638 10.465 10.465 0 018.142 3.54 13.235 13.235 0 013.186 9.2 13.222 13.222 0 01-3.308 9.387 10.963 10.963 0 01-8.386 3.557zm.2-4.59q5.615 0 5.615-8.374a11.36 11.36 0 00-1.343-5.969 4.507 4.507 0 00-4.126-2.185 4.671 4.671 0 00-4.272 2.258 11.325 11.325 0 00-1.392 5.994 10.733 10.733 0 001.472 6.153 4.665 4.665 0 004.041 2.123zM-184.38 0h-2.515v-33.325h5.566v12.036a9.387 9.387 0 013.174-3.638 7.537 7.537 0 013.711-.879 8.156 8.156 0 016.714 3.442q2.661 3.442 2.661 9.546a16.5 16.5 0 01-2.625 9.424 8.529 8.529 0 01-7.531 3.907 8.514 8.514 0 01-7.666-4.565zm3.052-10.522a7.078 7.078 0 001.428 4.87 4.763 4.763 0 003.7 1.575 4.6 4.6 0 003.687-1.807q1.489-1.807 1.587-7.08a10.994 10.994 0 00-1.343-5.945A4.254 4.254 0 00-176.055-21a4.718 4.718 0 00-3.784 1.782 7.629 7.629 0 00-1.489 5.029zM-137.622 0h-5.3a20.125 20.125 0 01-.854-4.98Q-146 .513-152.124.513a8.155 8.155 0 01-5.92-2.161 7.241 7.241 0 01-2.234-5.432q0-8.5 14.917-8.5.586 0 1.587.024v-1.855q0-3.833-5.225-3.833-5.078 0-5.762 3.833l-4.736-.708a7.181 7.181 0 013.174-5.066q2.783-1.99 8.057-1.99a18.793 18.793 0 014.663.476 7.147 7.147 0 013.052 1.611 6.17 6.17 0 011.721 2.466 14.87 14.87 0 01.476 4.5V-4.98a18.093 18.093 0 00.732 4.98zm-6.152-12.549q-10.791 0-10.791 5.151a3.576 3.576 0 001.086 2.625 4.463 4.463 0 003.279 1.086 5.8 5.8 0 004.8-2.013 7.1 7.1 0 001.624-4.578zM-124.9 0h-5.566v-33.325h5.566zm18.516-8.032l5.835-1.245q1.05 4.956 8.057 4.956a8.182 8.182 0 004.919-1.27A3.792 3.792 0 00-85.85-8.74a4.431 4.431 0 00-.781-2.527 5.614 5.614 0 00-3.345-1.819l-6.372-1.66a15.7 15.7 0 01-4.834-1.941 7.6 7.6 0 01-2.5-3.064 9.715 9.715 0 01-.94-4.224 8.769 8.769 0 013.32-7.166 13.04 13.04 0 018.5-2.7 15.532 15.532 0 017.678 1.88 8.47 8.47 0 014.309 5.322l-5.713 1.416Q-87.852-29-92.686-29a6.769 6.769 0 00-4.285 1.172 3.643 3.643 0 00-1.477 2.979q0 2.856 4.639 4l5.664 1.416q5.151 1.294 6.909 3.821a9.555 9.555 0 011.758 5.579 9.187 9.187 0 01-3.7 7.727A15.373 15.373 0 01-92.759.513a17.535 17.535 0 01-8.679-2.075 10.181 10.181 0 01-4.944-6.47zm48.662.171l5.029.684A10.523 10.523 0 01-56.5-1.66 11.329 11.329 0 01-63.6.513a10.611 10.611 0 01-8.255-3.443q-3.125-3.442-3.125-9.326a13.687 13.687 0 013.149-9.253 10.687 10.687 0 018.545-3.662 9.829 9.829 0 018.154 3.613 14.422 14.422 0 012.881 9.277l-.024.635h-16.919a13.827 13.827 0 00.476 4.028 5.429 5.429 0 001.892 2.638 5.519 5.519 0 003.54 1.123 5.48 5.48 0 005.566-4.004zm-.342-7.373a6.2 6.2 0 00-1.6-4.346 5.117 5.117 0 00-3.894-1.685 5.14 5.14 0 00-3.833 1.575 7.1 7.1 0 00-1.807 4.456zM-40.356 0h-5.566v-24.658h5.029v5.884a10.507 10.507 0 012.954-5.026 5.949 5.949 0 013.857-1.587q.269 0 .732.024v5.981q-4.248 0-5.627 2.71a11.547 11.547 0 00-1.379 5.249zm30.815-24.658L-17.915 0h-4.614L-31.1-24.658h5.811l5.762 16.724 5.615-16.724zM.913-27.539h-5.566v-5.786H.913zM.913 0h-5.566v-24.658H.913zm22.173-9.058l4.785.488a11.536 11.536 0 01-3.589 6.86A9.69 9.69 0 0117.861.513a9.168 9.168 0 01-7.849-3.723 14.935 14.935 0 01-2.747-9.119 13.976 13.976 0 013-9.2 9.858 9.858 0 018.008-3.638q8.057 0 9.595 8.5l-4.785.659q-.635-4.59-4.517-4.59a4.311 4.311 0 00-4.114 2.478 12.912 12.912 0 00-1.282 5.994 10.478 10.478 0 001.33 5.754 4.213 4.213 0 003.723 2.026q3.667 0 4.863-4.712zm25.981 1.2l5.029.684a10.523 10.523 0 01-3.808 5.514 11.329 11.329 0 01-7.1 2.173 10.611 10.611 0 01-8.256-3.443q-3.125-3.442-3.125-9.326a13.687 13.687 0 013.149-9.253 10.687 10.687 0 018.544-3.662 9.829 9.829 0 018.154 3.613 14.422 14.422 0 012.881 9.277l-.024.635H37.593a13.827 13.827 0 00.476 4.028 5.429 5.429 0 001.892 2.638A5.519 5.519 0 0043.5-3.857a5.48 5.48 0 005.567-4.004zm-.342-7.373a6.2 6.2 0 00-1.6-4.346 5.117 5.117 0 00-3.894-1.685A5.14 5.14 0 0039.4-19.69a7.1 7.1 0 00-1.807 4.456zm9.136 9.57l5.225-1q1.2 3 5.273 3 5.176 0 5.176-3.052a1.967 1.967 0 00-.806-1.611 4.429 4.429 0 00-1.9-.854l-4.492-.854q-7.471-1.44-7.471-7.3a7.424 7.424 0 012.368-5.554q2.368-2.283 7.056-2.283 7.813 0 9.546 5.737l-4.956 1q-.781-2.783-4.443-2.783-4.443 0-4.443 2.783 0 1.929 3.589 2.661l5.3 1.1q6.177 1.27 6.177 7.08A6.728 6.728 0 0175.879-1.5 13.781 13.781 0 0168.335.513a14.176 14.176 0 01-6.689-1.526 7.287 7.287 0 01-3.785-4.651zM104.893 0h-6.006v-33.325h13.647q5.835 0 8.655 2.942a9.7 9.7 0 012.82 6.946 9.624 9.624 0 01-3.052 7.4 10.932 10.932 0 01-7.739 2.832h-8.325zm0-18.359H112a6 6 0 004.248-1.367 4.74 4.74 0 001.465-3.638 5 5 0 00-1.355-3.516q-1.355-1.465-4.9-1.465h-6.567zm43.438-6.3L139.956 0h-4.614l-8.569-24.658h5.811l5.762 16.724 5.615-16.724zm16.337 20.313V0a19.7 19.7 0 01-3.857.537 7.856 7.856 0 01-3.857-.891A5.456 5.456 0 01154.6-2.8a11.577 11.577 0 01-.745-4.773v-12.764h-3.076v-4.321h3.394l.513-6.421 4.565-.415v6.836h4.949v4.321h-4.956V-8.3a4.489 4.489 0 00.842 3.162 4.533 4.533 0 003.186.842q.664-.004 1.396-.05zM176.294-6.4V0h-6.03v-6.4zM218.467 0h-20.508v-33.325h6.323v27.881h14.185zm16.777-4.346V0a19.7 19.7 0 01-3.857.537 7.856 7.856 0 01-3.857-.891 5.456 5.456 0 01-2.357-2.446 11.577 11.577 0 01-.745-4.773v-12.764h-3.076v-4.321h3.394l.513-6.421 4.565-.415v6.836h4.956v4.321h-4.956V-8.3a4.489 4.489 0 00.842 3.162 4.533 4.533 0 003.186.842q.66-.004 1.392-.05zM261.445 0h-5.2v-4.98Q254.1.513 248.97.513a7.771 7.771 0 01-6.958-3.784 17.13 17.13 0 01-2.417-9.4 16.375 16.375 0 012.515-9.106 8.038 8.038 0 017.153-3.882 6.647 6.647 0 016.616 4.346v-12.012h5.566zm-5.566-14.551a6.98 6.98 0 00-1.428-4.675 4.637 4.637 0 00-3.7-1.672 4.362 4.362 0 00-3.857 2.148q-1.394 2.15-1.394 6.421 0 8.252 5.176 8.252a4.74 4.74 0 003.625-1.77 6.559 6.559 0 001.575-4.529z" transform="translate(881 333)" fill="url(#b)"/><path data-name="Path 50" d="M75 0H0" transform="translate(506.5 315.5)" stroke="#7532a8" stroke-linecap="round" stroke-width="5" fill="url(#b)"/><path data-name="Path 48" d="M75 0H0" transform="translate(1180.5 315.5)" stroke="#7532a8" stroke-linecap="round" stroke-width="5" fill="url(#b)"/></g></svg>